<?xml version="1.0" encoding="UTF-8"?>
<svg xmlns="http://www.w3.org/2000/svg" xmlns:xlink="http://www.w3.org/1999/xlink" width="96pt" height="96pt" viewBox="0 0 96 96" version="1.1">
<g id="surface1">
<path style=" stroke:none;fill-rule:nonzero;fill:rgb(0%,0%,62.745098%);fill-opacity:1;" d="M 5.238281 42.109375 L 77.238281 42.109375 L 77.238281 56.945312 L 5.238281 56.945312 Z M 5.238281 42.109375 "/>
<path style="fill-rule:nonzero;fill:rgb(0%,0%,0%);fill-opacity:1;stroke-width:34;stroke-linecap:butt;stroke-linejoin:miter;stroke:rgb(0%,0%,62.745098%);stroke-opacity:1;stroke-miterlimit:4;" d="M 17.004395 95.000163 C 140.002441 95.000163 41.997884 161.001953 182.004395 161.001953 " transform="matrix(0.436364,0,0,0.436364,-2.181818,8.072727)"/>
<path style="fill-rule:nonzero;fill:rgb(0%,0%,0%);fill-opacity:1;stroke-width:34;stroke-linecap:butt;stroke-linejoin:miter;stroke:rgb(69.803922%,0%,0%);stroke-opacity:1;stroke-miterlimit:4;" d="M 182.004395 28.998372 C 41.997884 28.998372 140.002441 95.000163 17.004395 95.000163 " transform="matrix(0.436364,0,0,0.436364,-2.181818,8.072727)"/>
<path style=" stroke:none;fill-rule:nonzero;fill:rgb(69.803922%,0%,0%);fill-opacity:1;" d="M 23.5625 49.527344 C 23.5625 56.035156 18.289062 61.308594 11.78125 61.308594 C 5.273438 61.308594 0 56.035156 0 49.527344 C 0 43.019531 5.273438 37.746094 11.78125 37.746094 C 18.289062 37.746094 23.5625 43.019531 23.5625 49.527344 Z M 23.5625 49.527344 "/>
<path style=" stroke:none;fill-rule:nonzero;fill:rgb(69.803922%,0%,0%);fill-opacity:1;" d="M 76.800781 31.199219 L 96 20.726562 L 76.800781 10.253906 Z M 76.800781 31.199219 "/>
</g>
</svg>
